PathFileType	4	(X/Y/Z)	 s04c0103.trc
DataRate	CameraRate	NumFrames	NumMarkers	Units	OrigDataRate	OrigDataStartFrame	OrigNumFrames
200	200	4	50	mm	200	1	2000
Frame#	Time	racr			lacr			c7			jug			rlel			rdr			llel			ldr			s2			lic			ric			lasi			rasi			rpsi			lpsi			rgt			lgt			rth1			rth2			rth3			rth4			rlfc			rmfc			rsh1			rsh2			rsh3			rsh4			rlmal			rmmal			rcal			rtoe			rmt5			lth1			lth2			lth4			lth3			llfc			lmfc			lsh1			lsh2			lsh3			lsh4			llmal			lmmal			lcal			ltoe			lmt5			SBIKE			LBIKE			RBIKE			
		X1	Y1	Z1	X2	Y2	Z2	X3	Y3	Z3	X4	Y4	Z4	X5	Y5	Z5	X6	Y6	Z6	X7	Y7	Z7	X8	Y8	Z8	X9	Y9	Z9	X10	Y10	Z10	X11	Y11	Z11	X12	Y12	Z12	X13	Y13	Z13	X14	Y14	Z14	X15	Y15	Z15	X16	Y16	Z16	X17	Y17	Z17	X18	Y18	Z18	X19	Y19	Z19	X20	Y20	Z20	X21	Y21	Z21	X22	Y22	Z22	X23	Y23	Z23	X24	Y24	Z24	X25	Y25	Z25	X26	Y26	Z26	X27	Y27	Z27	X28	Y28	Z28	X29	Y29	Z29	X30	Y30	Z30	X31	Y31	Z31	X32	Y32	Z32	X33	Y33	Z33	X34	Y34	Z34	X35	Y35	Z35	X36	Y36	Z36	X37	Y37	Z37	X38	Y38	Z38	X39	Y39	Z39	X40	Y40	Z40	X41	Y41	Z41	X42	Y42	Z42	X43	Y43	Z43	X44	Y44	Z44	X45	Y45	Z45	X46	Y46	Z46	X47	Y47	Z47	X48	Y48	Z48	X49	Y49	Z49	X50	Y50	Z50	
1	0.0050	502.338969	1441.156709	-116.372206	539.047020	1424.018957	-389.035218	503.097328	1465.723950	-263.497790	507.708456	1316.813353	-254.452726	506.704505	1128.629838	-14.112511	699.739203	911.545350	-84.753336	521.840654	1143.006854	-501.891895	707.352476	914.427048	-437.833487	-48.173523	1185.847946	-280.469334	117.568724	1182.983950	-421.613093	109.734654	1166.775579	-110.202816	NaN	NaN	NaN	146.618185	1106.769231	-150.412568	-12.742705	1221.479732	-232.197174	-14.362940	1231.840980	-307.501873	48.139663	1105.669761	-99.039591	76.733179	1127.116867	-469.796875	123.886200	955.640486	-78.465009	177.095305	886.607090	-90.979996	192.475867	802.114913	-98.138826	206.810174	901.738925	-108.727641	235.557365	665.136197	-127.816303	207.260237	648.900877	-238.196845	170.508067	555.937634	-100.495380	152.606758	468.015514	-113.412368	91.103564	405.496391	-118.056328	179.099270	457.174816	-139.941400	33.648173	263.494775	-125.925104	51.866477	269.169091	-212.519188	-40.347744	234.067455	-167.159313	257.934197	198.858679	-152.519655	188.620911	179.017122	-98.434328	138.165673	1076.214556	-473.744102	224.066775	1067.987703	-472.936606	236.235803	1097.675314	-454.221564	296.905385	1016.809480	-481.868749	433.419599	932.766299	-456.735298	465.831565	912.934893	-348.273200	391.981216	825.863441	-476.428628	366.333588	745.080907	-453.448895	302.399989	683.690995	-450.184611	390.135454	735.590499	-423.917463	220.559671	563.203916	-436.809201	217.746672	569.048403	-348.748200	136.819867	547.807863	-393.364478	435.016367	505.107545	-401.943432	360.752767	475.486217	-463.166834	-177.044870	934.485783	-279.785751	-3.389195	85.805353	-484.923557	-15.093968	80.449260	-84.236850	
2	0.0100	502.307572	1441.093408	-116.410979	539.054208	1423.913252	-389.011101	503.140731	1465.577747	-263.536938	507.645931	1316.623470	-254.453934	506.753862	1128.629935	-14.096048	699.705511	911.519772	-84.748458	521.788148	1142.964030	-501.971344	707.376304	914.490521	-438.000372	-48.154203	1185.857655	-280.472056	117.517866	1182.960173	-421.603938	109.735610	1166.757004	-110.183617	NaN	NaN	NaN	146.615226	1106.774858	-150.357137	-12.745878	1221.486395	-232.197905	-14.370353	1231.864315	-307.486846	48.142933	1105.695609	-99.054781	76.680994	1127.130563	-469.808816	123.886938	955.638577	-78.472211	177.094939	886.624218	-90.999373	192.478586	802.155120	-98.153468	206.830662	901.758082	-108.720581	235.592913	665.172862	-127.826426	207.276866	648.913700	-238.228050	170.511654	555.988140	-100.525542	151.721758	467.087149	-113.303759	91.105714	405.554589	-118.065086	177.753637	455.888601	-139.744940	33.646552	263.547206	-125.942332	51.852336	269.179102	-212.544978	-40.356943	234.108178	-167.172207	257.909323	198.873608	-152.516016	188.594920	179.054025	-98.413819	138.139957	1076.213827	-473.751411	224.023867	1067.965589	-472.958817	236.197938	1097.681324	-454.246104	296.859502	1016.806369	-481.904588	433.375299	932.750844	-456.777199	465.832586	912.912516	-348.309717	391.937256	825.853883	-476.452352	366.316136	745.071030	-453.478297	302.391048	683.670230	-450.224197	390.100725	735.573425	-423.950932	220.573610	563.166658	-436.832165	217.806245	568.997321	-348.725202	136.837601	547.773139	-393.370599	435.026300	505.114494	-401.931015	360.766848	475.488445	-463.180446	-177.053568	934.485394	-279.800321	-3.387432	85.802216	-484.918795	-15.083228	80.451460	-84.271313	
3	0.0150	502.309423	1441.031780	-116.469320	539.027297	1423.831125	-389.001959	503.185049	1465.473759	-263.569121	507.603157	1316.457390	-254.499016	506.775817	1128.655009	-14.052902	699.706932	911.512480	-84.746200	521.751319	1142.932980	-502.082961	707.378352	914.507719	-438.136033	-48.173672	1185.878385	-280.460957	117.512953	1182.972701	-421.613796	109.714877	1166.762119	-110.156419	NaN	NaN	NaN	146.566583	1106.754026	-150.334003	-12.760228	1221.512538	-232.187569	-14.362716	1231.877845	-307.494907	48.097014	1105.708165	-99.023872	76.655324	1127.131294	-469.812466	123.885190	955.647576	-78.460716	177.098941	886.616393	-91.007142	192.481927	802.150677	-98.171704	206.830981	901.767953	-108.675988	235.593724	665.196521	-127.840965	207.308076	648.919836	-238.247767	170.510874	556.010797	-100.562843	151.715193	467.124311	-113.323030	91.041486	405.625029	-118.078892	177.744529	455.924978	-139.765909	33.619352	263.587673	-125.951719	51.825883	269.244863	-212.558257	-40.377938	234.141736	-167.179455	257.874098	198.887179	-152.515769	188.566995	179.069922	-98.407679	138.099553	1076.212173	-473.749432	223.994889	1067.957427	-472.966265	236.175055	1097.656512	-454.237909	296.811650	1016.792666	-481.932416	433.342580	932.739493	-456.796194	465.798081	912.902337	-348.330513	391.910264	825.842879	-476.484348	366.306138	745.055094	-453.501589	302.378195	683.644912	-450.238918	390.104256	735.559420	-423.986503	220.589055	563.120943	-436.833272	217.761450	568.977264	-348.744973	136.856264	547.722556	-393.373270	435.050465	505.110291	-401.942977	360.801054	475.464050	-463.158624	-177.046740	934.473811	-279.787555	-3.390199	85.816395	-484.918595	-15.085934	80.467191	-84.267002	
4	0.0200	502.309752	1440.990428	-116.509812	539.053834	1423.734275	-389.018596	503.406822	1465.608649	-263.818603	507.540379	1316.326078	-254.514472	506.784837	1128.669938	-14.021040	699.712236	911.481259	-84.706457	521.830698	1142.862129	-502.166608	707.378503	914.524111	-438.234480	-48.439937	1185.771738	-280.597269	117.512034	1182.966211	-421.633368	109.936552	1166.667373	-110.121972	NaN	NaN	NaN	146.549437	1106.764763	-150.326257	-12.729128	1221.469697	-232.189741	-14.362716	1231.877845	-307.494907	48.107766	1105.705652	-99.032838	76.632920	1127.119204	-469.798006	123.848840	955.665854	-78.601000	177.613958	886.252785	-90.641589	192.458136	802.171177	-98.192140	206.832364	901.775056	-108.697219	235.581329	665.230397	-127.871467	207.400519	648.883448	-238.263025	170.487913	556.057596	-100.580839	151.635091	467.262610	-114.351649	91.038112	405.678455	-118.113001	178.957665	456.919713	-140.219324	33.557007	263.671768	-125.738899	51.797205	269.260455	-212.570721	-40.235889	233.667700	-166.865016	257.859269	198.896052	-152.509972	188.540965	179.086435	-98.416101	138.063606	1076.202838	-473.775888	223.963107	1067.949415	-472.981479	235.924595	1097.803669	-454.594737	296.784756	1016.783014	-481.953338	433.257939	932.777065	-456.787621	465.775955	912.899450	-348.338510	391.892779	825.820429	-476.495854	366.339810	745.049463	-453.653346	302.413436	683.318247	-449.778607	390.149506	735.590920	-424.184748	220.636014	562.919172	-436.519859	217.665577	568.964809	-348.403327	136.863774	547.691198	-393.376374	435.070604	505.110825	-401.938542	360.825828	475.454916	-463.172846	-177.115865	934.507426	-280.101279	-3.378722	85.809857	-484.913114	-15.081124	80.435904	-84.272256	
